<?xml version="1.0" encoding="UTF-8"?>
<svg id="Layer_1" xmlns="http://www.w3.org/2000/svg" version="1.1" viewBox="0 0 480.66 67.31">
  <!-- Generator: Adobe Illustrator 29.5.1, SVG Export Plug-In . SVG Version: 2.1.0 Build 141)  -->
  <defs>
    <style>
      .st0 {
        fill: #81bfcb;
      }
    </style>
  </defs>
  <path class="st0" d="M99.47,8.41h-.03c-.17,12.17.4,14.8.4,24.1v1.44c-.05,7.71-.03,17.66-.19,25.36,0,.67-.06,1.36-.15,2.03-.65,5.08-1.34,5.7-6.35,5.7h-22.88c-1.99,0-3.61-1.61-3.61-3.61v-18c.16-2.39.08-4.82-.21-7.19-.64-5.08,1.25-8.06-3.98-7.09-1.2.23-1.16,2.55-1.71,6.94-.18,1.37.09,25.68.09,25.68,0,1.76-1.36,3.18-3.09,3.3-.59.36-1.38.46-2.29.46s-1.95-.1-3.03-.13c-.9-.03-1.73-.04-2.52-.04s-1.61,0-2.52.04c-2.15.06-4.15.39-5.32-.33-1.72-.13-3.09-1.55-3.09-3.3,0,0,.26-24.31.09-25.68-.54-4.38-.51-6.71-1.71-6.94-5.23-.97-3.35,2.01-3.98,7.09-.29,2.37-.37,4.81-.21,7.19v18c0,1.99-1.61,3.61-3.61,3.61H6.69c-5.01,0-5.71-.62-6.35-5.7-.08-.66-.13-1.36-.15-2.03-.18-7.7-.15-17.65-.19-25.36v-1.33c0-9.39.58-11.99.41-24.19C.27-1.28,6.77.35,9.19.31,20.05.13,18.1.11,28.96.02c4.45-.03-1.1-.05,6.03.13,3.63.09,4.88.99,6.41,4.33,1.24,2.7,2.57,5.25,3.95,7.66.95,1.69,2.73,2.57,4.58,2.7,1.84-.13,3.62-1.01,4.58-2.7,1.37-2.42,2.7-4.95,3.95-7.66,1.53-3.35,2.78-4.23,6.41-4.33,4.7-.12,3.91-.15,4.09-.15.09,0,.44,0,1.96.02,10.86.08,8.91.11,19.77.29,2.41.05,8.91-1.6,8.78,8.12v-.02Z"/>
  <path class="st0" d="M161.58.15c5.5,0,10.99,0,16.49.01,2.57,0,4.09,1.99,4.2,5.35.15,4.6.35,9.2.38,13.8.06,12.22.09,24.45.09,36.68v6.7c0,3.69-.39,4.24-4.02,4.34-7.16.19-14.32.1-21.48.13-2.8,0-5.61.02-8.41.02-1.65,0-3.3,0-4.95-.02-10.89-.08-21.78-.16-32.66-.34-2.41-.04-3.39-1.41-3.4-4.17-.04-8.04-.09-16.08-.09-24.12,0-2.48,0-4.97.02-7.45.05-7.75.3-15.48.47-23.23.02-.66.06-1.31.15-1.97.66-5.1,1.35-5.72,6.38-5.72h46.86-.03ZM146.54,23.82c-.95,0-1.9-.03-2.85,0-5.27.2-8.48,3.16-8.82,8.38-.16,2.39-.08,4.83.21,7.21.58,4.68,4.35,7.58,9.1,7.27,2.11-.14,4.22-.25,6.33-.34,3.98-.18,6.89-2.79,7.38-6.74.17-1.37.2-2.76.28-4.14.44-9-2.42-11.96-11.43-11.78h-.22.02v.13h0Z"/>
  <path class="st0" d="M263.11,24.39c2.41.03,3.39,1.17,3.4,3.47v-.02c.03,6.61.09,6.04.09,9.09,0,1,0,2.4-.02,4.58-.05,6.44-.3,12.86-.46,19.3-.02.58-.06,1.17-.16,1.75-.65,4.23-1.35,4.75-6.36,4.75h-63.29c-2.57,0-4.08-1.65-4.19-4.46-.15-3.83-.38-7.67-.38-11.51v-.06c-.02-3.03,2.92-5.5,6.55-5.5,0,0,22.37,1.98,32.37,1.78,3.97-.07,6.77-1.53,8.05-4.12-3.7,0-7.4.03-11.09,0-10.88-.06-21.75-.13-32.63-.28-2.41-.03-3.39-1.17-3.4-3.47-.03-6.61-.09-6.04-.09-9.09,0-1,0-2.4.02-4.58.05-6.43.3-12.86.47-19.29.02-.58.06-1.17.16-1.75.65-4.23,1.35-4.75,6.36-4.75h30.44c10.95,0,21.9,0,32.85.02,2.57,0,4.08,1.65,4.19,4.46.15,3.83.38,7.67.38,11.51v.06c.02,3.03-2.92,5.49-6.55,5.49,0,0-22.37-1.98-32.37-1.78-3.97.07-6.77,1.53-8.05,4.12,3.7,0,7.4-.03,11.09,0,10.88.06,21.75.13,32.63.28h-.01Z"/>
  <path class="st0" d="M344.85.27c5.39,22.32,10.71,44.37,16.12,66.73-10.48,0-20.52.02-30.57-.05-.46,0-1.08-.58-1.36-1.05-.53-.87-.93-1.82-1.25-2.78-1.56-4.75-4.94-6.6-9.76-6.27-2.76.18-5.56.09-8.27.52-3.57.57-5.98,2.8-6.62,6.39-.45,2.46-1.48,3.38-3.91,3.39h-.27c-8-.16-16-.06-24.4-.06,3.81-22.67,8.94-44.66,15.42-66.81h54.88-.01ZM324.57,30.39c-.67-2.53-1.53-5.01-2.49-7.45-1.21-3.1-3.45-5.06-6.93-5.07-3.48,0-5.69,1.99-6.93,5.07-.73,1.82-1.1,3.79-1.92,5.56-2.85,6.14,1.66,13.32,8.74,12.34,6.89,0,11.11-4.56,9.54-10.45h-.01Z"/>
  <path class="st0" d="M399.02,34.21h0c-.13,5.76,0,22.79.21,28.89v.11c0,2.35-2.31,4.09-4.66,4.09h-21.86c-2.52,0-4.58-1.99-4.69-4.5-.13-3.29-.26-6.52-.26-9.75.02-11.83.2-23.66.25-35.49.02-3.75-.18-7.5-.2-11.24,0-1.16.12-2.35.36-3.49.39-1.79,1.47-2.77,3.44-2.74,4.63.06,9.26.09,13.89.06,2.58-.03,5.93-.06,8.54-.08,2.6-.03,4.74,2.07,4.74,4.69v15.7c0,1,.25,12.43.22,13.77l.02-.02Z"/>
  <path class="st0" d="M442.83,46.86v-.02c1.72-.24,33.83-3.23,33.83-3.23,3.75,0,3.75.54,4,1.77v17.6c0,3.7-.39,4.26-4.04,4.35-7.18.18-14.36.1-21.55.13-3.04,0-6.08.02-9.12.02-1.43,0-2.85,0-4.28,0-10.93-.08-21.85-.16-32.77-.34-2.42-.04-3.4-1.41-3.41-4.18-.02-8.01-.09-16.03-.09-24.04,0-2.55,0-5.09.02-7.64.04-7.73.3-15.48.46-23.22.02-.7.06-1.4.15-2.09.66-5.09,1.36-5.7,6.39-5.7h49.39c4.72,0,9.44,0,14.16.01,2.58,0,4.11,1.99,4.21,5.37.14,4.61.38,9.23.38,13.85v.06c.02,3.64-2.94,6.61-6.58,6.61,0,0-22.46-2.38-32.5-2.15-5.28.12-8.5,3.17-8.84,8.41-.15,2.4-.08,4.85.22,7.24.62,4.95,4.81,7.92,9.94,7.2h.03Z"/>
</svg>